<svg width="64" height="52" viewBox="0 0 64 52" fill="none" xmlns="http://www.w3.org/2000/svg">
<path d="M45.3557 47.1562C44.2195 49.2447 41.2214 49.2447 40.0852 47.1562L24.0845 17.7454C22.9969 15.7463 24.444 13.3117 26.7197 13.3117L58.7212 13.3117C60.9969 13.3117 62.444 15.7463 61.3564 17.7454L45.3557 47.1562Z" fill="#38EFC3"/>
<path d="M39.9553 47.1562C38.8191 49.2447 35.821 49.2447 34.6848 47.1562L18.6841 17.7454C17.5965 15.7463 19.0436 13.3117 21.3193 13.3117L53.3208 13.3117C55.5965 13.3117 57.0436 15.7463 55.9561 17.7454L39.9553 47.1562Z" fill="#38EFC3" fill-opacity="0.7"/>
<path d="M34.554 47.1562C33.4178 49.2447 30.4196 49.2447 29.2835 47.1562L13.2827 17.7454C12.1952 15.7463 13.6422 13.3117 15.918 13.3117L47.9194 13.3117C50.1952 13.3117 51.6422 15.7463 50.5547 17.7454L34.554 47.1562Z" fill="#38EFC3" fill-opacity="0.4"/>
<path d="M18.4138 4.8438C19.55 2.75538 22.5481 2.75539 23.6843 4.84381L39.685 34.2547C40.7726 36.2537 39.3255 38.6883 37.0498 38.6883H5.04834C2.7726 38.6883 1.32552 36.2537 2.41309 34.2547L18.4138 4.8438Z" fill="#38EFC3"/>
<path d="M23.8142 4.8438C24.9504 2.75538 27.9485 2.75539 29.0847 4.84381L45.0854 34.2547C46.173 36.2537 44.7259 38.6883 42.4502 38.6883H10.4487C8.17299 38.6883 6.72591 36.2537 7.81348 34.2547L23.8142 4.8438Z" fill="#38EFC3" fill-opacity="0.7"/>
<path d="M29.2156 4.8438C30.3518 2.75538 33.3499 2.75539 34.4861 4.84381L50.4868 34.2547C51.5744 36.2537 50.1273 38.6883 47.8515 38.6883H15.8501C13.5744 38.6883 12.1273 36.2537 13.2148 34.2547L29.2156 4.8438Z" fill="#38EFC3" fill-opacity="0.4"/>
</svg>
